<svg id="Laag_1" data-name="Laag 1" xmlns="http://www.w3.org/2000/svg" viewBox="0 0 100 97.85"><defs><style>.cls-1{fill:#010101;}.cls-2{font-size:15.5px;font-family:Raleway-ExtraBold, Raleway;font-weight:800;}.cls-3{letter-spacing:-0.01em;}.cls-4{letter-spacing:0em;}</style></defs><title>quizmaster-logo</title><path class="cls-1" d="M99.33,19.41,64.8.17A1.33,1.33,0,0,0,63,.66L61.7,2.88,40.33.38a1.37,1.37,0,0,0-1,.28,1.28,1.28,0,0,0-.5.88L38.52,4,17.75,9.89a1.34,1.34,0,0,0-.92,1.63L17.51,14l-17,13.3a1.32,1.32,0,0,0-.24,1.84h0L36.11,74.5a1.23,1.23,0,0,0,.39.33A1.32,1.32,0,0,0,38,74.72L52.9,63l16.49,9.2a1.35,1.35,0,0,0,1.81-.51L99.83,21.2a1.31,1.31,0,0,0-.49-1.79Zm-39-14L35.7,48.85l5.63-45.7ZM38.2,6.87,32.11,56.34,20.3,14.09h0l-.56-2ZM3.2,28.5,18.28,16.66l13.42,48Zm32,24.65,11.18,6.23L34.57,58Zm-1.89,7.36L46.06,62,34.59,65.21Zm4.11,11.33-3-3.84L46.7,64.52Zm32.16-2.55-16-8.94h-.09l-16-8.94L63.59,5h0l1-1.81,32.22,18Z" transform="translate(0 0)"/><text class="cls-2" transform="translate(0 94.27)">QUIZM<tspan class="cls-3" x="51.02" y="0">A</tspan><tspan class="cls-4" x="61.24" y="0">S</tspan><tspan x="70.7" y="0">TER</tspan></text></svg>